# xmcd
#
# Track frame offsets:
#   150
#   14524
#   30535
#   47597
#   60459
#   80144
#   100069
#   114523
#   127716
#   158313
#   178155
#   189669
#   204649
#
# Disc length: 3256 seconds
#
# Revision: 0
# Processed by: cddbd v1.5.2PL0 Copyright (c) Steve Scherf et al.
# Submitted via: GXTranscoder 2.0.1939
#
DISCID=a00cb60d
DTITLE=Gwildis Steffan - Neues Spiel 
DYEAR=1999
DGENRE=Blues
TTITLE0=allen anschein bist dus
TTITLE1=immer weiter
TTITLE2=sie ist so süß
TTITLE3=mitten vorm dock nr 10
TTITLE4=sie lässt mich nicht mehr loß
TTITLE5=wem bringt das was 
TTITLE6=schön, schön, schön
TTITLE7=wirklich nicht fair
TTITLE8=papa will da nicht mehr wohn
TTITLE9=laß ma ruhig den hut auf
TTITLE10=gue sera sera
TTITLE11=warum komm ich nur so selten dazu
TTITLE12=lass mich nicht alleine heut nacht
EXTD=
EXTT0=
EXTT1=
EXTT2=
EXTT3=
EXTT4=
EXTT5=
EXTT6=
EXTT7=
EXTT8=
EXTT9=
EXTT10=
EXTT11=
EXTT12=
PLAYORDER=
